# xmcd
#
# Track frame offsets:
#	150
#	16245
#	29092
#	44554
#	57499
#	75514
#	92078
#	107493
#	120030
#	137365
#	157318
#	174648
#
# Disc length: 2539 seconds
#
# Revision: 1
# Processed by: cddbd v1.5.1PL0 Copyright (c) Steve Scherf et al.
# Submitted via: EasyCDDAExtractor 5.0.6
#
DISCID=9509e90c
DTITLE=Gretchen Wilson - All Jacked Up
DYEAR=2005
DGENRE=Country
TTITLE0=All Jacked Up
TTITLE1=California Girls
TTITLE2=Full Time Job
TTITLE3=Skoal Ring
TTITLE4=He Aint Even Cold Yet
TTITLE5=One Bud Wiser
TTITLE6=Politically Uncorrect (Feat. Merle Haggard)
TTITLE7=I Dont Feel Like Loving You Today
TTITLE8=Rebel Child
TTITLE9=Raining On Me
TTITLE10=Not Bad For A Bartender
TTITLE11=Good Morning Heartache
EXTD=
EXTT0=
EXTT1=
EXTT2=
EXTT3=
EXTT4=
EXTT5=
EXTT6=
EXTT7=
EXTT8=
EXTT9=
EXTT10=
EXTT11=
PLAYORDER=
